<svg width="40" height="40" viewBox="0 0 40 40" fill="none" xmlns="http://www.w3.org/2000/svg">
<path d="M21.1 24.3142L32.5 19.2204V29.3767C32.4996 29.5285 32.4441 29.6751 32.3438 29.7892C32.2 29.9517 28.7313 33.7517 20 33.7517C11.2688 33.7517 7.80002 29.9517 7.65627 29.7892C7.55597 29.6751 7.50045 29.5285 7.50002 29.3767V19.2142L18.8625 24.3017C19.2166 24.4827 19.6086 24.5769 20.0063 24.5767C20.3866 24.5781 20.7618 24.4881 21.1 24.3142ZM37.5 28.5454C37.4998 28.1584 37.3794 27.781 37.1555 27.4652C36.9316 27.1495 36.6152 26.9111 36.25 26.7829V16.1704L36.8125 15.9204C37.0224 15.8112 37.1978 15.6458 37.3192 15.4427C37.4406 15.2396 37.5032 15.0067 37.4999 14.7702C37.4967 14.5336 37.4278 14.3025 37.3009 14.1028C37.174 13.9031 36.9941 13.7426 36.7813 13.6392L20.5938 6.39541C20.4172 6.30114 20.2205 6.25078 20.0203 6.24861C19.8201 6.24643 19.6224 6.2925 19.4438 6.38291C19.4438 6.38291 3.19377 13.6517 3.18752 13.6579C2.97948 13.7644 2.80507 13.9265 2.6837 14.1263C2.56232 14.326 2.49874 14.5555 2.50002 14.7892C2.50149 15.0278 2.56955 15.2613 2.69653 15.4634C2.82351 15.6654 3.00438 15.8281 3.21877 15.9329L19.4063 23.1767C19.5912 23.2745 19.7971 23.3259 20.0063 23.3267C20.1982 23.3271 20.3872 23.2799 20.5563 23.1892L35 16.7329V26.7829C34.6529 26.9037 34.3493 27.1246 34.1274 27.4177C33.9056 27.7107 33.7754 28.0629 33.7534 28.4298C33.7313 28.7967 33.8183 29.1619 34.0035 29.4795C34.1886 29.797 34.4636 30.0526 34.7938 30.2142L33.7938 32.8454C33.7347 32.9996 33.7391 33.1709 33.8058 33.3219C33.8725 33.473 33.9963 33.5915 34.15 33.6517C34.2267 33.6816 34.3086 33.696 34.3908 33.694C34.4731 33.6919 34.5542 33.6735 34.6293 33.6397C34.7043 33.606 34.7719 33.5576 34.8281 33.4974C34.8842 33.4372 34.9278 33.3664 34.9563 33.2892L35.625 31.5454L36.2938 33.2892C36.338 33.4078 36.4173 33.5103 36.5211 33.5828C36.6249 33.6554 36.7484 33.6946 36.875 33.6954C36.9519 33.693 37.0278 33.6782 37.1 33.6517C37.2538 33.5915 37.3775 33.473 37.4442 33.3219C37.511 33.1709 37.5153 32.9996 37.4563 32.8454L36.4563 30.2142C36.7679 30.0602 37.0306 29.8226 37.2149 29.5279C37.3993 29.2332 37.498 28.893 37.5 28.5454Z" fill="url(#paint0_linear_74_3046)"/>
<defs>
<linearGradient id="paint0_linear_74_3046" x1="2.50002" y1="20.0001" x2="37.5" y2="20.0001" gradientUnits="userSpaceOnUse">
<stop stop-color="#0EE7F6"/>
<stop offset="1" stop-color="#13C2CE"/>
</linearGradient>
</defs>
</svg>
