<svg width="40" height="40" viewBox="0 0 40 40" fill="none" xmlns="http://www.w3.org/2000/svg">
<g clip-path="url(#clip0_74_3040)">
<path d="M21.6273 20.0022L22.6703 19.7608L22.9539 18.6382C23.2555 17.4397 24.4977 16.7382 25.6781 17.0991L26.7016 17.4116L27.5102 16.5812C28.3695 15.6952 29.7953 15.7085 30.6375 16.6101L31.368 17.3921L32.482 17.0772C33.6711 16.7382 34.8984 17.4624 35.1773 18.6671L35.2375 18.9241C35.3281 18.9085 35.4172 18.8952 35.5078 18.8843C35.5719 18.8772 35.6227 18.853 35.6562 18.8202C35.6695 18.8069 35.6781 18.7913 35.6781 18.7757V8.93584C35.6781 8.92256 35.6695 8.90693 35.6562 8.89365C35.6227 8.86006 35.5719 8.83584 35.5078 8.82725C34.2453 8.67021 33.1164 8.1499 32.2547 7.39443C31.3773 6.62178 30.775 5.60303 30.5891 4.45771C30.5867 4.43975 30.5711 4.42021 30.5469 4.40225C30.507 4.371 30.4469 4.35381 30.3766 4.35381H9.62734C9.55625 4.35381 9.49687 4.37178 9.45469 4.40225C9.43281 4.42021 9.41719 4.43975 9.41484 4.45771C9.22656 5.60225 8.62422 6.621 7.74766 7.39443C6.88828 8.1499 5.75703 8.67021 4.49453 8.82725C4.43281 8.83584 4.38125 8.86084 4.34844 8.89365C4.33516 8.90693 4.32656 8.92256 4.32656 8.93584V18.7749C4.32656 18.7905 4.33516 18.8062 4.34844 18.8194C4.38203 18.853 4.43281 18.8772 4.49453 18.8835C5.75703 19.0429 6.88828 19.5608 7.74766 20.3187C8.625 21.089 9.22734 22.1101 9.41484 23.253C9.41719 23.2733 9.43281 23.2905 9.45469 23.3085C9.49687 23.3421 9.55625 23.3593 9.62734 23.3593H20.2266L20.0383 22.6968C19.7008 21.5085 20.425 20.2812 21.6273 20.0022ZM11.4117 8.74522H28.5898C28.9445 8.74522 29.2344 9.0335 29.2344 9.38975C29.2344 9.746 28.9445 10.0343 28.5898 10.0343H11.4117C11.0555 10.0343 10.7672 9.746 10.7672 9.38975C10.7672 9.0335 11.0555 8.74522 11.4117 8.74522ZM7.46094 14.2288C7.10469 14.2288 6.81406 13.9405 6.81406 13.5843C6.81406 13.228 7.10391 12.9374 7.46094 12.9374H32.5406C32.8969 12.9374 33.1852 13.2272 33.1852 13.5843C33.1852 13.9405 32.8969 14.2288 32.5406 14.2288H7.46094ZM40 2.51787V25.1952C40 25.8929 39.6453 26.5132 39.1078 26.8804C39.4109 26.0983 39.2453 25.1733 38.5984 24.546L37.768 23.7397L38.0805 22.7163C38.4414 21.5335 37.7391 20.2937 36.5414 19.9905L36.3086 19.9327C36.4062 19.871 36.4945 19.7999 36.5719 19.7202C36.8195 19.4702 36.9664 19.1374 36.9664 18.7749V8.93584C36.9664 8.57256 36.8203 8.24287 36.5719 7.99053C36.3437 7.75771 36.0273 7.59834 35.6641 7.55225C34.6695 7.42803 33.782 7.021 33.1063 6.42725C32.4461 5.84678 31.9945 5.08975 31.8594 4.25225C31.7992 3.896 31.607 3.59209 31.3281 3.37959C31.0672 3.18037 30.732 3.06318 30.3758 3.06318H9.62734C9.26875 3.06318 8.93438 3.18037 8.675 3.37959C8.39609 3.59209 8.20078 3.89521 8.14375 4.25225C8.00625 5.08896 7.55703 5.84678 6.89687 6.42725C6.22109 7.021 5.33125 7.42803 4.33906 7.55225C3.97578 7.59912 3.65937 7.7585 3.43125 7.99053C3.18359 8.24287 3.03516 8.57334 3.03516 8.93584V18.7749C3.03516 19.1382 3.18359 19.4702 3.43125 19.7202C3.65937 19.953 3.97578 20.1147 4.33906 20.1585C5.33125 20.2827 6.22109 20.6921 6.89687 21.2858C7.55703 21.8663 8.00625 22.621 8.14375 23.4608C8.20156 23.8155 8.39609 24.121 8.675 24.3312C8.93438 24.5304 9.26875 24.6499 9.62734 24.6499H19.4641C18.7977 25.3655 18.707 26.428 19.1984 27.239H2.04453C0.921875 27.2397 0 26.3179 0 25.1952V2.51787C0 1.39287 0.921875 0.474121 2.04453 0.474121H37.9562C39.0805 0.474121 40 1.39287 40 2.51787ZM25.6586 35.1413L26.675 34.8538L25.4703 39.3491C25.4125 39.5616 25.1227 39.5905 25.025 39.3937L24.0016 37.3499C23.9375 37.2218 23.7758 37.1772 23.6539 37.2569L21.7469 38.5171C21.5633 38.6366 21.3258 38.4663 21.3836 38.2538L22.8141 32.9101L22.9625 33.5522C23.2422 34.7538 24.4711 35.4772 25.6586 35.1413ZM36.7578 38.2522C36.8156 38.4647 36.5781 38.6351 36.3922 38.5155L34.4852 37.2554C34.3656 37.1757 34.2039 37.2202 34.1375 37.3483L33.1164 39.3921C33.0164 39.589 32.7266 39.5601 32.6688 39.3476L31.4531 34.8101L32.4609 35.1179C33.6438 35.4765 34.8836 34.7765 35.1867 33.5788L35.3398 32.9679L36.7578 38.2522ZM32.393 22.7858C33.2438 23.6358 33.7703 24.8101 33.7703 26.1077C33.7703 27.4054 33.243 28.5812 32.393 29.4319C31.5422 30.2827 30.3687 30.8069 29.0711 30.8069C27.7734 30.8069 26.5977 30.2819 25.7469 29.4319C24.8961 28.5819 24.3719 27.4054 24.3719 26.1077C24.3719 24.8101 24.8969 23.6366 25.7469 22.7858C26.5977 21.9351 27.7734 21.4085 29.0711 21.4085C30.3687 21.4085 31.5422 21.9358 32.393 22.7858ZM36.6273 24.4819C36.3969 24.2585 36.3172 23.9483 36.4102 23.6405L36.8109 22.3296C36.9508 21.871 36.6828 21.3952 36.2172 21.278L34.8 20.9218C34.4898 20.8444 34.2664 20.614 34.193 20.3015L33.8828 18.9663C33.7742 18.4991 33.3047 18.2226 32.8445 18.353L31.4406 18.7515C31.1328 18.8397 30.8227 18.7538 30.6031 18.5187L29.6664 17.5155C29.343 17.1679 28.7914 17.1632 28.4617 17.5046L27.443 18.5522C27.2219 18.7827 26.9094 18.8624 26.6039 18.7694L25.2906 18.3687C24.832 18.2288 24.3586 18.4968 24.2406 18.9624L23.8844 20.3796C23.8047 20.6897 23.5766 20.9132 23.2641 20.9866L21.9266 21.2968C21.4617 21.4054 21.1828 21.8749 21.3133 22.3351L21.7141 23.739C21.8008 24.0468 21.7141 24.3569 21.4797 24.5757L20.4789 25.5124C20.1313 25.8382 20.1242 26.3874 20.4656 26.7171L21.5156 27.7358C21.7437 27.9569 21.8258 28.2694 21.7305 28.5749L21.332 29.8882C21.1922 30.3468 21.4602 30.8202 21.9258 30.9382L23.3406 31.2944C23.6508 31.3741 23.8766 31.6022 23.95 31.9147L24.2578 33.2522C24.3664 33.7171 24.8359 33.996 25.2961 33.8655L26.7023 33.4647C27.0102 33.378 27.3203 33.4647 27.5375 33.6991L28.4742 34.6999C28.8 35.0499 29.3492 35.0546 29.6813 34.7132L30.6977 33.6632C30.9211 33.4351 31.2336 33.353 31.5391 33.4483L32.85 33.8468C33.3086 33.9866 33.7844 33.7187 33.9016 33.253L34.2578 31.8382C34.3352 31.528 34.5656 31.3022 34.8781 31.2312L36.2133 30.921C36.6805 30.8124 36.957 30.3429 36.8266 29.8827L36.4281 28.4765C36.3398 28.1687 36.4258 27.8585 36.6609 27.6413L37.6641 26.7046C38.0117 26.3788 38.0164 25.8296 37.675 25.4976L36.6273 24.4819ZM33.3055 30.3444C32.2227 31.4272 30.7258 32.0983 29.0711 32.0983C27.4164 32.0983 25.9195 31.4272 24.8344 30.3444C23.7516 29.2593 23.0805 27.7624 23.0805 26.1077C23.0805 24.453 23.7516 22.9562 24.8344 21.8733C25.9195 20.7882 27.4164 20.1194 29.0711 20.1194C30.7258 20.1194 32.2227 20.7882 33.3055 21.8733C34.3906 22.9562 35.0617 24.453 35.0617 26.1077C35.0617 27.7624 34.3906 29.2593 33.3055 30.3444Z" fill="url(#paint0_linear_74_3040)"/>
</g>
<defs>
<linearGradient id="paint0_linear_74_3040" x1="0.000234375" y1="19.9999" x2="39.9998" y2="19.9999" gradientUnits="userSpaceOnUse">
<stop stop-color="#13C2CE"/>
<stop offset="1" stop-color="#0EE7F6"/>
</linearGradient>
<clipPath id="clip0_74_3040">
<rect width="40" height="40" fill="white"/>
</clipPath>
</defs>
</svg>
