<svg width="40" height="40" viewBox="0 0 40 40" fill="none" xmlns="http://www.w3.org/2000/svg">
<path fill-rule="evenodd" clip-rule="evenodd" d="M28.804 10.6135C30.1485 11.2265 31.3326 12.1301 32.2763 13.2437C29.8761 13.9036 28.1127 16.1012 28.1127 18.7111C28.1127 19.0395 28.141 19.3613 28.1946 19.6744H14.7252C14.7252 15.6487 17.1153 12.1814 20.5537 10.6135C21.6151 11.6587 23.0715 12.304 24.6789 12.304C26.2862 12.304 27.7427 11.6587 28.804 10.6135ZM3.76193 28.3294C3.63349 28.106 3.7106 27.8206 3.93404 27.6922C4.15755 27.5638 4.44287 27.6409 4.57123 27.8644L5.17138 28.9038C5.29982 29.1272 5.22271 29.4126 4.99927 29.541C4.77584 29.6694 4.49045 29.5923 4.36209 29.3689L3.76193 28.3294ZM18.4867 27.1057C18.2369 27.039 18.0886 26.7823 18.1553 26.5326C18.222 26.2828 18.4786 26.1344 18.7284 26.2012L24.6154 27.7786C26.6879 28.3339 27.5204 25.2026 25.4547 24.6491L17.1126 22.4139C16.0972 22.1419 15.4422 22.3804 14.6104 22.8605L7.2799 27.0928L11.0914 33.6945L14.1936 31.9035C14.3004 31.8354 14.4344 31.8105 14.5664 31.8458L24.5922 34.5322C25.6476 34.8149 26.6369 34.6849 27.5807 34.1395L37.1392 28.6209C38.5219 27.8226 38.2815 25.7102 36.6999 25.2865C36.1808 25.1474 35.7107 25.2375 35.2551 25.5005L29.4336 28.8615C28.5129 29.3931 27.5158 29.5249 26.4902 29.2501L18.4869 27.1056L18.4867 27.1057ZM6.23802 27.1552L5.52677 25.9233C5.27763 25.4917 4.71607 25.3424 4.28623 25.5906L1.93693 26.947C1.51123 27.1893 1.35529 27.7456 1.60482 28.1873L7.29052 38.0352C7.43505 38.2664 7.58302 38.4101 7.85802 38.4839C8.14748 38.5615 8.33896 38.5012 8.58505 38.3742L10.8948 37.0397C11.3264 36.7905 11.4761 36.2294 11.2279 35.7999L6.23802 27.1553V27.1552ZM33.7829 13.9785C31.1691 13.9785 29.0502 16.0973 29.0502 18.7111C29.0502 21.3248 31.1691 23.4437 33.7829 23.4437C36.3966 23.4437 38.5154 21.3248 38.5154 18.7111C38.5154 16.0973 36.3965 13.9785 33.7829 13.9785ZM31.025 18.2285L32.0248 20.492C32.1511 20.7785 32.5244 20.8623 32.7608 20.6566L36.4199 17.4722C36.6151 17.3024 36.6355 17.0064 36.4657 16.8112C36.2958 16.6161 35.9998 16.5956 35.8047 16.7654L32.6248 19.533L31.882 17.8513C31.7779 17.6147 31.5015 17.5072 31.265 17.6115C31.0283 17.7156 30.9209 17.9919 31.0251 18.2285H31.025ZM24.6789 1.48193C21.9494 1.48193 19.7366 3.69467 19.7366 6.4242C19.7366 9.15373 21.9494 11.3665 24.6789 11.3665C27.4084 11.3665 29.6211 9.15373 29.6211 6.4242C29.6211 3.69467 27.4084 1.48193 24.6789 1.48193Z" fill="url(#paint0_linear_74_3048)"/>
<defs>
<linearGradient id="paint0_linear_74_3048" x1="11.6461" y1="8.24084" x2="26.8441" y2="34.5647" gradientUnits="userSpaceOnUse">
<stop stop-color="#13C2CE"/>
<stop offset="1" stop-color="#0EE7F6"/>
</linearGradient>
</defs>
</svg>
