<svg width="40" height="40" viewBox="0 0 40 40" fill="none" xmlns="http://www.w3.org/2000/svg">
<path d="M31.168 20.0037C31.2232 19.7809 31.2505 19.5521 31.2493 19.3225V5.44161C31.2274 4.64332 30.8904 3.88617 30.3118 3.33571C29.7332 2.78525 28.9603 2.48628 28.1619 2.50418H5.58743C4.78904 2.48628 4.01604 2.78524 3.43748 3.3357C2.85891 3.88616 2.52185 4.64332 2.5 5.44161V24.0849C2.50204 24.5087 2.62956 24.9225 2.86648 25.274C3.1034 25.6255 3.43911 25.8989 3.83125 26.0599C4.24832 26.242 4.70955 26.2982 5.15816 26.2216C5.60678 26.145 6.0232 25.9389 6.35617 25.6286L9.93736 22.2599H28.1619C28.8437 22.2766 29.5112 22.0631 30.0566 21.6537C30.6021 21.2443 30.9936 20.663 31.168 20.0037ZM15.6247 11.8789C15.789 11.8811 15.9458 11.948 16.0612 12.0649C16.1766 12.1819 16.2413 12.3396 16.2413 12.5039C16.2413 12.6683 16.1766 12.826 16.0612 12.9429C15.9458 13.0599 15.789 13.1267 15.6247 13.1289H9.99981V16.8788H15.6247C15.7904 16.8788 15.9494 16.9447 16.0666 17.0619C16.1838 17.1791 16.2497 17.3381 16.2497 17.5038C16.2497 17.6696 16.1838 17.8286 16.0666 17.9458C15.9494 18.063 15.7904 18.1288 15.6247 18.1288H9.99981C9.66859 18.1279 9.35122 17.9959 9.11702 17.7617C8.88281 17.5274 8.75081 17.2101 8.74984 16.8788V8.12903C8.75081 7.79781 8.88282 7.48044 9.11703 7.24623C9.35124 7.01202 9.66862 6.88003 9.99984 6.87907H15.6247C15.7905 6.87907 15.9494 6.94491 16.0666 7.06212C16.1839 7.17933 16.2497 7.33831 16.2497 7.50407C16.2497 7.66983 16.1839 7.8288 16.0666 7.94601C15.9494 8.06322 15.7905 8.12907 15.6247 8.12907H9.99981V11.879L15.6247 11.8789ZM26.2494 17.5038C26.247 17.6385 26.2015 17.7688 26.1194 17.8756C26.0374 17.9825 25.9233 18.0601 25.7938 18.0972C25.6643 18.1343 25.5264 18.1288 25.4002 18.0816C25.2741 18.0344 25.1665 17.948 25.0932 17.835L19.9996 9.68523V17.5038C19.9972 17.668 19.9304 17.8247 19.8134 17.9401C19.6964 18.0554 19.5388 18.12 19.3745 18.12C19.2103 18.12 19.0527 18.0553 18.9357 17.94C18.8187 17.8247 18.7519 17.668 18.7496 17.5038V7.50405C18.7522 7.36954 18.7979 7.23943 18.88 7.13281C18.962 7.02619 19.0761 6.94867 19.2054 6.91162C19.3347 6.87457 19.4725 6.87994 19.5986 6.92696C19.7246 6.97397 19.8323 7.06014 19.9058 7.17283L24.9994 15.3226V7.50405C25.0006 7.33906 25.0669 7.18122 25.184 7.06496C25.3011 6.94871 25.4594 6.88347 25.6244 6.88347C25.7894 6.88347 25.9477 6.94871 26.0648 7.06496C26.1818 7.18122 26.2482 7.33906 26.2494 7.50405L26.2494 17.5038ZM37.4991 21.1787V35.6782C37.5506 37.2793 35.3896 38.0995 34.2804 36.9783L31.5555 34.3971H17.5246C16.8684 34.4097 16.2341 34.1614 15.7607 33.7068C15.2873 33.2522 15.0137 32.6283 14.9997 31.9722V23.5099L28.1618 23.5099C28.77 23.5183 29.3732 23.3977 29.9314 23.1559C30.4896 22.9141 30.9902 22.5567 31.4001 22.1072C31.81 21.6578 32.1199 21.1265 32.3094 20.5484C32.4988 19.9703 32.5636 19.3587 32.4992 18.7538H34.9742C35.6304 18.7412 36.2648 18.9895 36.7381 19.4441C37.2115 19.8987 37.4851 20.5225 37.4991 21.1787Z" fill="url(#paint0_linear_74_3042)"/>
<defs>
<linearGradient id="paint0_linear_74_3042" x1="2.5" y1="20.0002" x2="37.5" y2="20.0002" gradientUnits="userSpaceOnUse">
<stop stop-color="#0EE7F6"/>
<stop offset="1" stop-color="#13C2CE"/>
</linearGradient>
</defs>
</svg>
