<svg width="40" height="40" viewBox="0 0 40 40" fill="none" xmlns="http://www.w3.org/2000/svg">
<path d="M36.9168 20.8365C36.9168 20.8365 31.3321 26.4274 31.3321 26.4274C30.6732 27.0769 29.6474 27.1815 28.8771 26.6836C27.1929 25.5465 25.665 24.4332 24.1295 23.1416C19.9654 19.6889 16.3215 15.6268 13.3225 11.1226C12.8278 10.3512 12.9202 9.33056 13.5786 8.6676L19.1632 3.0829C19.8254 2.42699 20.8562 2.3208 21.6245 2.83301C27.8053 6.93409 33.0741 12.207 37.1667 18.3877C37.6789 19.1436 37.5728 20.1743 36.9168 20.8365ZM18.5636 19.6558C18.2825 19.3685 18.0013 19.0624 17.7202 18.7625L13.1975 23.2853C12.6615 23.8686 11.4782 24.4896 10.7987 24.9094C9.85527 25.3041 4.31639 31.2036 3.45237 31.9746C0.539181 35.1095 4.8922 39.4653 8.03142 36.5473C8.82974 35.6537 14.6733 30.169 15.0904 29.2073C15.5109 28.5193 16.1282 27.352 16.7145 26.8023C16.7145 26.8023 21.2372 22.2795 21.2372 22.2795C20.3261 21.4248 19.4245 20.5702 18.5636 19.6558ZM31.9443 9.85451C32.2192 10.1356 32.5003 10.4417 32.7814 10.7416L32.8064 10.7166C33.7739 9.78545 33.7725 8.12821 32.8064 7.19335C31.8798 6.23105 30.2186 6.22748 29.2894 7.19338C30.0846 8.08478 31.0546 8.85876 31.9443 9.85451Z" fill="url(#paint0_linear_74_3037)"/>
<defs>
<linearGradient id="paint0_linear_74_3037" x1="2.49206" y1="20.0096" x2="37.4902" y2="20.0096" gradientUnits="userSpaceOnUse">
<stop stop-color="#13C2CE"/>
<stop offset="1" stop-color="#0EE7F6"/>
</linearGradient>
</defs>
</svg>
