<svg width="40" height="40" viewBox="0 0 40 40" fill="none" xmlns="http://www.w3.org/2000/svg">
<path d="M35.5483 21.3633L26.5547 31.5633C26.4648 31.6659 26.4143 31.7975 26.4143 31.9347V39.9609H13.584V31.9347C13.584 31.7975 13.5335 31.6659 13.4436 31.5633L4.45325 21.3633C3.27091 20.0229 3.72567 18.5558 4.70028 17.6959C5.67489 16.8368 7.18771 16.5688 8.36927 17.9084L13.3217 23.5251C13.9803 26.6077 16.7243 28.9267 20.0004 28.9267C23.2764 28.9267 26.0204 26.6077 26.679 23.5251L31.6315 17.9084C32.813 16.5688 34.3258 16.8368 35.3004 17.6959C36.275 18.5558 36.7299 20.0229 35.5483 21.3633ZM20.0004 16.3891C16.8536 16.3891 14.2931 18.9488 14.2931 22.0956C14.2931 25.2432 16.8535 27.8029 20.0004 27.8029C23.1472 27.8029 25.7076 25.2432 25.7076 22.0956C25.7076 18.9488 23.1472 16.3891 20.0004 16.3891ZM12.8581 2.31477C12.8565 2.16477 12.915 2.02039 13.0209 1.91367C13.126 1.80695 13.2704 1.7468 13.4204 1.7468H15.2212V0.601406C15.2212 0.291016 15.4723 0.0390625 15.7827 0.0390625H24.2181C24.5285 0.0390625 24.7796 0.290937 24.7796 0.601406V1.74688H26.5804C26.7304 1.74688 26.8748 1.80703 26.9799 1.91375C27.0858 2.02047 27.1436 2.16484 27.1427 2.31484C27.1194 4.52953 26.0438 6.6207 24.259 7.94109C23.6862 9.06172 22.6851 9.92797 21.4715 10.3211V11.8106H21.7082C22.6483 11.8106 23.4136 12.5759 23.4136 13.516V14.6575C23.4136 14.9679 23.1617 15.2198 22.8521 15.2198H17.1489C16.8393 15.2198 16.5874 14.9679 16.5874 14.6575V13.5145C16.5874 12.5752 17.3518 11.8107 18.2904 11.8107H18.5294V10.3212C17.3166 9.92812 16.3163 9.06344 15.7436 7.94359C13.957 6.62305 12.8813 4.53031 12.8581 2.31477ZM24.7772 5.8707C25.4437 5.00437 25.8681 3.96641 25.986 2.8707H24.7796V5.77602C24.7795 5.80812 24.7779 5.83937 24.7772 5.8707ZM14.0147 2.87062C14.1327 3.96633 14.557 5.00516 15.2236 5.87227C15.2228 5.84016 15.2211 5.80805 15.2211 5.77602V2.87062H14.0147ZM10.6547 9.08437L14.1882 10.1804C14.2436 10.1975 14.2997 10.2058 14.3547 10.2058C14.5943 10.2058 14.8163 10.0512 14.8911 9.81031C14.9829 9.51406 14.8172 9.19937 14.521 9.1075L10.9875 8.01148C10.6911 7.91953 10.3766 8.08531 10.2847 8.38156C10.1928 8.67781 10.3585 8.9925 10.6547 9.08437ZM25.1098 9.81039C25.1846 10.0512 25.4064 10.2058 25.6461 10.2058C25.7012 10.2058 25.7573 10.1976 25.8127 10.1803L29.3439 9.0843C29.6401 8.99242 29.8058 8.67766 29.7138 8.38148C29.6219 8.08516 29.307 7.91953 29.011 8.01156L25.4798 9.10758C25.1835 9.19945 25.0179 9.51414 25.1098 9.81039ZM10.0365 14.1824H14.0793C14.3896 14.1824 14.641 13.9309 14.641 13.6208C14.641 13.3106 14.3895 13.0591 14.0793 13.0591H10.0365C9.7263 13.0591 9.47489 13.3106 9.47489 13.6208C9.47489 13.931 9.72638 14.1824 10.0365 14.1824ZM25.3573 13.6208C25.3573 13.931 25.6088 14.1824 25.919 14.1824H29.9618C30.272 14.1824 30.5234 13.9309 30.5234 13.6208C30.5234 13.3106 30.2719 13.0591 29.9618 13.0591H25.919C25.6088 13.0591 25.3573 13.3105 25.3573 13.6208Z" fill="url(#paint0_linear_74_3044)"/>
<defs>
<linearGradient id="paint0_linear_74_3044" x1="20.0004" y1="0.0390625" x2="20.0004" y2="39.9609" gradientUnits="userSpaceOnUse">
<stop stop-color="#0EE7F6"/>
<stop offset="1" stop-color="#13C2CE"/>
</linearGradient>
</defs>
</svg>
